<?xml version="1.0" encoding="UTF-8"?>
<svg id="Layer_2" data-name="Layer 2" xmlns="http://www.w3.org/2000/svg" viewBox="0 0 1627.59 924.27">
  <g id="Layer_8_Image" data-name="Layer 8 Image">
    <g>
      <path d="M88.12,700.34l83.97-2v-70.98c0-1.39-4.13-23.91-4.86-27.13-2.2-9.66-12.44-14-11.14-23.84l105.93.05c-.05,11.29-9.04,18.3-11.06,29.83-8.08,46.01-5.35,92.95-.79,138.95,4.98,50.29-7.65,101.27,10.02,151.57.61,1.72,3.46,1.45,3.81,2.87,1.05,4.27.84,11.93-2.94,14.61h-94.96c-1.12-7.34,1.26-16.48,2.55-24.44,1.77-10.88,4.79-22.71,5.43-34.56,1.54-28.61-1.11-58.26.02-86.96h-66.97c-1.37,0-14.75,3.89-15.08,5.31l.93,81.26c-1.19,11.49,15.47,48.07,12.91,56.08-.46,1.44-1.63,2.4-2.76,3.31H7.15l-2.67-4.56c.94-3.62,2.65-7.24,3.16-10.95,8.08-58.84,6.76-114.56,6.41-173.36-.24-40.02,2.36-80.02-4.79-119.15-1.6-8.77-16.03-29.63-4.06-31.83l95.04.81c6.59,9.43-4.45,17.48-6.79,25.46-.87,2.98-5.33,19.58-5.33,20.66v78.98Z"/>
      <path d="M1342.63,924.27l-2.65-4.54c5.84-15.51,12.14-31.69,13.62-48.47,5.77-65.53.93-135.74.06-201.5-6.5-2.95-5.49-7.68-8.32-12.12-5.2-8.14-24.9-28.14-18.82-37.41h96.22s42.83,79.13,42.83,79.13l61.98,88.95-2.2-116.74c-1.61-19.78-20.55-33.6-17.77-53.2h97.96c1.08,14.14-7.41,26.01-10.98,40-11.28,44.16-7.62,165.11-5.1,215,.41,8.11,1.28,19.83,2.24,27.75.89,7.32,8.36,16.46.84,23.15h-59.98c-9.26-11.3-18.99-22.53-27.86-34.12-28.99-37.86-54.58-79.6-82.28-119.65-2.31-3.35-5.42-8.04-8.81-10.18v102.97c0,19.79,15.63,34.61,19.58,50.4.86,3.44.37,7.1.41,10.58h-90.96Z"/>
      <path d="M1474.58,64.53c.76.12,4.96,2.18,5.13,3.29-4.24,14.11-9.05,24.38-10.12,39.72-1.57,22.57.88,46.92.26,69.68.67,2.59,2.44,2.86,4.72,3.28,7.33,1.35,23.64.28,32.09.1,5.95-.13,38.02-1.73,39.01-5.31.11-3.13.06-6.24-.58-9.32-4.6-22.11.16-48.85-5.72-72.26-2.3-9.17-14.81-21.49-6.82-29.16h87.97c.3,0,4.89,2.09,5,3.18-2.08,9.83-8.1,18.24-9.48,28.33-7.74,56.81.84,118.19-.42,175.52-.45,20.61-.2,40.79,2.16,61.63,1.6,14.16,10.71,26.83,9.74,41.24h-88.97c-7.09-5.11-.52-9.39.41-13.59,1-4.45,6.58-25.88,6.58-27.4v-90.97l-75.97,2.02c5.04,24.01.08,50.42,2.03,74.93,1.5,18.85,8.89,36.55,11.97,55.01h-93.96c.34-10.01,4.47-19.39,5.76-29.23,7.03-53.6,3.63-107.84,2.16-161.63-.66-23.96,2.32-67.39-2.79-89.18-2.37-10.12-11.83-16.77-8.8-27.54l4.68-2.32c25.53,2.89,59.54-3.88,83.97,0Z"/>
      <path d="M932.79,60.53l4.41,2.63c4.13,8,6.86,17.89,10.79,25.76,12.8,25.64,30.75,50.93,45.81,76.55l31.96,43.02v-96.97c0-1.28-3.78-14.98-4.64-17.35-3.92-10.81-14.41-19.27-13.16-31.4,1.63-.04,4.11-2.23,4.8-2.23h84.97c5.09,9.82-2.28,12.72-5,19.99-4.23,11.26-8.23,27-9.08,38.91-3.53,49.85-2.88,123.91,0,174.12.38,6.59,1.22,17.62,2.16,23.83.78,5.11,6.65,7.27,2.9,15.06-.44.92-3.67,4.02-3.98,4.02h-47.98l-7.79-6.2-103.15-143.75c.72,7.21-1.16,15.96.08,22.9.58,3.29,3.38,5.5,4.01,9.99,3.75,26.99-5.74,59.49,3.89,86.08,2.52,6.96,10.98,16.2,11.53,22.35.22,2.51-3.18,8.65-4.53,8.65h-77.97c-8.66-7.97,1.48-15.03,4.02-21.97,18.88-51.53.19-142.72,6.95-198.94-.84-9.4-13.26-26.55-19.13-34.85-4.98-7.05-11.56-8.4-8.83-20.16h86.97Z"/>
      <path d="M479.97,616.36l-5.99,89.98c-15.09,3.38-15.5-9.67-25.05-18.03-6.03-5.28-15.84-6.09-20.5-11.79-3.06.85-7.88-2.18-9.43-2.18h-46.98v55.98h58.98c.75,0,12.46-6.53,13.03-7.02,3.97-3.45-1.27-9.85,13.96-6.98v78.98l-8.85,4.88c-8.44-14.81-28.92-9.58-44.21-9.78-3.72-.05-7.24-1.91-10.13-1.9-6.86,0-15.11,3.5-22.79,1.8-1.05,24.11-.7,47.93,2.01,71.99h56.98c1.77,0,29.25-11.2,32.71-13.27,9.48-5.66,16.32-20.71,25.36-14.81,4.24,10.64-1.03,18.75-2.91,27.27-4.56,20.68-7.83,45.58-19.18,62.79h-172.93c-2.22-14.25,4.43-27.55,5.99-40.99,5.6-48.07,1.2-105.5.12-154.02-.69-30.89,4.07-65.01-6.04-93.97-2.17-6.22-8.33-10.55-6.06-18.93h191.92Z"/>
      <path d="M1285.65,616.36l-5.99,89.98c-16.92,4.27-16.68-10.78-23.83-17.21-2.82-2.53-26.9-14.79-29.16-14.79h-50.98v55.98h58.98c4.75,0,20.93-15.74,28.99-12v70.98c0,.52-1.9,10.62-5.04,9.08-5.85.2-7.94-5.17-12.9-7.13-20.44-8.05-48.51,1.02-70.03-.96l4.01,71.99h56.98c4.77,0,34.1-14.65,39.52-18.55,8.81-6.35,8.52-15.1,23.47-11.44.21,2.86,0,5.67-.49,8.51-3.13,17.68-14.63,57.89-21.08,74.89-1.18,3.12-3.07,6.18-5.43,8.57h-169.93c-3.82-2.58-3.23-6.79-3.02-10.92.79-15.97,6.85-35.99,8.09-51.99,3.74-48.18,5.25-171.2-4.55-215.53-2.44-11.06-10.56-18.39-9.52-29.47h191.92Z"/>
      <path d="M698.88,920.27c-7.13-5.33.46-12.94.95-19.22,1.31-17.08-13.73-67.97-19.47-86.26-.84-2.67-.38-5.73-.47-8.49l-73.9.08c-.25,2.59.06,5.51-.99,7.94-9.57,22.11-26.45,65.27-23.22,89.1.51,3.74,3.73,2.59,4.11,4.22.46,1.99.52,11.44-.15,12.45l-78.45.27c-7.11-1.65-.23-29.04,1.25-34.5,20.31-75.27,63.58-147.09,87.47-220.43,5.09-15.62,10.66-32.71,7.92-49.05l80.84-.04c1.21,23.55,12.88,44.2,20.14,66.01,13.41,40.29,26.54,81.78,39.96,121.99,12.35,37.01,26.91,73.27,36.97,111.09l-2.96,4.85h-79.97ZM661.9,756.32c-1.36-17.58-12.42-32.54-14.01-49.98-12.09,13.28-14.35,34.02-21.97,49.98h35.99Z"/>
      <path d="M.16,208.49l11.69.32c13.78,31.95,50.92,51.33,85.27,47.66,7.55-.81,13.74-3.56,17.81-10.18,11.67-18.99-1.94-34.8-16.98-46.63-26.97-21.22-53.63-29.59-77.85-58.1C-16.65,98.28-.79,31.96,49.69,8.71,78.52-4.57,107.34.83,137.12,2.53c7.12.41,40.25-1.61,42.69,2.3.17,15.53.73,31.23.36,46.79-.11,4.72-1.96,9.1-2.17,13.83-.39,8.91,3.83,34.49-3.87,38.2-11.71-3.6-13.83-15.46-24.2-23.96-21.64-17.73-43.34-19.16-70.58-16.93-20.45,22.11,6.38,36.28,23.28,47.81,39.55,26.98,84.15,42.96,87.55,98.82,6.43,105.64-89.81,120.41-172.93,102.96-4.1-.86-12.94-4.81-17.09-6.9v-96.97Z"/>
      <path d="M891.81,616.36c4.55,14.95.2,31.2,2.48,46.51,3.03,20.36,13.69,43.11,15.63,64.35l30.88,95.1c3.24.1,17.43-52.03,19.53-58.46,10.46-32.04,24.6-68.07,30.91-101.05,3.43-17.94,1.8-28.79-1.46-46.44h80.97c13.26,0,2.63,28.88.43,36.41-21.08,72.21-60.11,138.38-84.31,209.59-6.28,18.47-12.02,40.57-13.07,59.91l-70.12,1.11-1.59-2.39c.45-23.86-12.05-44.76-19.28-66.7-23.59-71.68-44.23-149.1-77.39-216.59-1.23-2.51-4.39-2.64-5.48-4.93-1.74-3.65-3.61-14.06.91-16.41h90.96Z"/>
      <path d="M833.83,56.53l-4.29,81.67c-11.99,7.07-14.89-7.21-22.7-13.69-8.46-7.01-15.2-6.74-23.54-10.06-2.32-.92-1.24-3.93-1.45-3.93h-47.98v51.98h52.98c7.16,0,17.8-15.66,26.99-12v73.98c-10.8,1.44-13.71-6.79-24.99-8-18.27-1.95-36.79,2.06-54.98,2.01l2,63.97h54.98c2.38,0,18.14-9.16,23.39-8.2l18.7-11.78,4.9,2.99v36.99l-3.95,1.41-9.04,34.58h-157.94c-.71,0-3.2-2.11-4.74-2.28l-.46-2.71c-1.02-7.6,5.1-16.33,6.09-22.11s1.82-19.07,2.18-25.81c2-37.49,5.16-178.73-4.68-207.42-.87-2.53-15.24-21.6-6.39-21.6h174.93Z"/>
      <path d="M1363.62,56.53v86.97l-10.05,2.07c-14.67-31.22-54.03-31.62-83.89-27.04l2,168.91c2.83,22.41,2.26,45.01,11.94,66.04l-4.96,6.95h-84.97c1.71-21.07,7.02-41.68,8.08-62.9,2.99-59.6-2.08-121.52-2.08-181.03h-32.99c-5.03,0-25.31,8.66-29.97,12.02-9.34,6.73-11.98,25.24-25.01,14.98V59.53l5.9-4.1,246,1.1Z"/>
      <path d="M378.01,135.51l-8.08,2.08c-4.27-9.59-10.39-15.67-19.9-20.08-4.48-2.08-9.22-1.73-12.55-3.07-2.33-.94-1.24-3.93-1.45-3.93h-47.98v51.98h52.98c5.5,0,20.79-16.08,24.98-12.01l-.11,73.87c-6.41,3.49-13.71-7.88-16.87-7.88h-60.98l1.86,65.01c10.05,1.74,20.88,3.35,31.12,2.95,15.08-.59,30.25-3.39,42.97-8.94,2.22-.97,14.02-9.47,14.02-2.04v61.98l-161.01,1.1c-3-4.78,3.88-18.06,4.82-25.35,6.88-53.26,5.27-142.92,2.33-197.77-.97-18.08-3.15-36.95-13.71-51.92.02-.68,4.29-4.98,4.63-4.98h159.94l3,3v75.98Z"/>
      <path d="M471.97,60.53c-3.09,30.98,5.91,58.2,13.54,87.43,2.47,9.46,3.62,17.46,6.58,27.42,6.89,23.17,16.62,45.74,22.88,69.11,3.83.8,3.02-1.39,3.92-3.98,4.38-12.66,7.51-26.07,11.59-38.49,9.36-28.53,37.11-100.09,33.62-126.63-.34-2.55-7.7-6.7-4.16-14.86h79.97c-.02,5.5.4,11-.52,16.48-5.19,31.11-28.8,83.12-41.1,112.85-17.13,41.4-43.87,88.91-52.24,133.69-.88,4.7.29,10.09-.1,14.9l-63.03-1.96c-7.5-25.52-14.99-51.27-23.53-76.44-18.66-55.05-39.26-126.5-64.98-176.93-3.88-7.62-12.61-13.36-10.41-22.6h87.97Z"/>
    </g>
  </g>
</svg>