<?xml version="1.0" encoding="UTF-8"?>
<svg id="Layer_2" xmlns="http://www.w3.org/2000/svg" version="1.1" viewBox="0 0 1627.6 924.3">
  <!-- Generator: Adobe Illustrator 29.6.1, SVG Export Plug-In . SVG Version: 2.1.1 Build 9)  -->
  <defs>
    <style>
      .st0 {
        fill: #fff;
      }
    </style>
  </defs>
  <g id="Layer_8_Image">
    <g>
      <path class="st0" d="M88.1,700.3l84-2v-71c0-1.4-4.1-23.9-4.9-27.1-2.2-9.7-12.4-14-11.1-23.8h105.9c0,11.3-9,18.3-11.1,29.9-8.1,46-5.4,93-.8,139,5,50.3-7.6,101.3,10,151.6.6,1.7,3.5,1.5,3.8,2.9,1,4.3.8,11.9-2.9,14.6h-95c-1.1-7.3,1.3-16.5,2.6-24.4,1.8-10.9,4.8-22.7,5.4-34.6,1.5-28.6-1.1-58.3,0-87h-67c-1.4,0-14.8,3.9-15.1,5.3l.9,81.3c-1.2,11.5,15.5,48.1,12.9,56.1-.5,1.4-1.6,2.4-2.8,3.3H7.2l-2.7-4.6c.9-3.6,2.7-7.2,3.2-11,8.1-58.8,6.8-114.6,6.4-173.4-.2-40,2.4-80-4.8-119.2-1.6-8.8-16-29.6-4.1-31.8l95,.8c6.6,9.4-4.4,17.5-6.8,25.5-.9,3-5.3,19.6-5.3,20.7v79h0Z"/>
      <path class="st0" d="M1342.6,924.3l-2.7-4.5c5.8-15.5,12.1-31.7,13.6-48.5,5.8-65.5.9-135.7,0-201.5-6.5-3-5.5-7.7-8.3-12.1-5.2-8.1-24.9-28.1-18.8-37.4h96.2l42.8,79.1,62,89-2.2-116.7c-1.6-19.8-20.6-33.6-17.8-53.2h98c1.1,14.1-7.4,26-11,40-11.3,44.2-7.6,165.1-5.1,215,.4,8.1,1.3,19.8,2.2,27.8.9,7.3,8.4,16.5.8,23.2h-60c-9.3-11.3-19-22.5-27.9-34.1-29-37.9-54.6-79.6-82.3-119.7-2.3-3.3-5.4-8-8.8-10.2v103c0,19.8,15.6,34.6,19.6,50.4.9,3.4.4,7.1.4,10.6h-91Z"/>
      <path class="st0" d="M1474.6,64.5c.8.1,5,2.2,5.1,3.3-4.2,14.1-9.1,24.4-10.1,39.7-1.6,22.6.9,46.9.3,69.7.7,2.6,2.4,2.9,4.7,3.3,7.3,1.4,23.6.3,32.1.1,5.9-.1,38-1.7,39-5.3.1-3.1,0-6.2-.6-9.3-4.6-22.1.2-48.8-5.7-72.3-2.3-9.2-14.8-21.5-6.8-29.2h88c.3,0,4.9,2.1,5,3.2-2.1,9.8-8.1,18.2-9.5,28.3-7.7,56.8.8,118.2-.4,175.5-.4,20.6-.2,40.8,2.2,61.6,1.6,14.2,10.7,26.8,9.7,41.2h-89c-7.1-5.1-.5-9.4.4-13.6,1-4.5,6.6-25.9,6.6-27.4v-91l-76,2c5,24,0,50.4,2,74.9,1.5,18.9,8.9,36.5,12,55h-94c.3-10,4.5-19.4,5.8-29.2,7-53.6,3.6-107.8,2.2-161.6-.7-24,2.3-67.4-2.8-89.2-2.4-10.1-11.8-16.8-8.8-27.5l4.7-2.3c25.5,2.9,59.5-3.9,84,0h0Z"/>
      <path class="st0" d="M932.8,60.5l4.4,2.6c4.1,8,6.9,17.9,10.8,25.8,12.8,25.6,30.8,50.9,45.8,76.6l32,43v-97c0-1.3-3.8-15-4.6-17.3-3.9-10.8-14.4-19.3-13.2-31.4,1.6,0,4.1-2.2,4.8-2.2h85c5.1,9.8-2.3,12.7-5,20-4.2,11.3-8.2,27-9.1,38.9-3.5,49.9-2.9,123.9,0,174.1.4,6.6,1.2,17.6,2.2,23.8.8,5.1,6.7,7.3,2.9,15.1-.4.9-3.7,4-4,4h-48l-7.8-6.2-103.2-143.8c.7,7.2-1.2,16,0,22.9.6,3.3,3.4,5.5,4,10,3.8,27-5.7,59.5,3.9,86.1,2.5,7,11,16.2,11.5,22.4.2,2.5-3.2,8.6-4.5,8.6h-78c-8.7-8,1.5-15,4-22,18.9-51.5.2-142.7,7-198.9-.8-9.4-13.3-26.6-19.1-34.8-5-7.1-11.6-8.4-8.8-20.2h87,0Z"/>
      <path class="st0" d="M480,616.4l-6,90c-15.1,3.4-15.5-9.7-25-18-6-5.3-15.8-6.1-20.5-11.8-3.1.8-7.9-2.2-9.4-2.2h-47v56h59c.8,0,12.5-6.5,13-7,4-3.5-1.3-9.8,14-7v79l-8.9,4.9c-8.4-14.8-28.9-9.6-44.2-9.8-3.7,0-7.2-1.9-10.1-1.9-6.9,0-15.1,3.5-22.8,1.8-1,24.1-.7,47.9,2,72h57c1.8,0,29.2-11.2,32.7-13.3,9.5-5.7,16.3-20.7,25.4-14.8,4.2,10.6-1,18.8-2.9,27.3-4.6,20.7-7.8,45.6-19.2,62.8h-172.9c-2.2-14.2,4.4-27.5,6-41,5.6-48.1,1.2-105.5.1-154-.7-30.9,4.1-65-6-94-2.2-6.2-8.3-10.5-6.1-18.9h191.9,0Z"/>
      <path class="st0" d="M1285.7,616.4l-6,90c-16.9,4.3-16.7-10.8-23.8-17.2-2.8-2.5-26.9-14.8-29.2-14.8h-51v56h59c4.8,0,20.9-15.7,29-12v71c0,.5-1.9,10.6-5,9.1-5.8.2-7.9-5.2-12.9-7.1-20.4-8-48.5,1-70-1l4,72h57c4.8,0,34.1-14.7,39.5-18.5,8.8-6.3,8.5-15.1,23.5-11.4.2,2.9,0,5.7-.5,8.5-3.1,17.7-14.6,57.9-21.1,74.9-1.2,3.1-3.1,6.2-5.4,8.6h-169.9c-3.8-2.6-3.2-6.8-3-10.9.8-16,6.8-36,8.1-52,3.7-48.2,5.2-171.2-4.6-215.5-2.4-11.1-10.6-18.4-9.5-29.5h191.9,0Z"/>
      <path class="st0" d="M698.9,920.3c-7.1-5.3.5-12.9,1-19.2,1.3-17.1-13.7-68-19.5-86.3-.8-2.7-.4-5.7-.5-8.5h-73.9c-.2,2.7,0,5.6-1,8-9.6,22.1-26.5,65.3-23.2,89.1.5,3.7,3.7,2.6,4.1,4.2.5,2,.5,11.4-.2,12.5l-78.5.3c-7.1-1.7-.2-29,1.2-34.5,20.3-75.3,63.6-147.1,87.5-220.4,5.1-15.6,10.7-32.7,7.9-49h80.8c1.2,23.5,12.9,44.2,20.1,66,13.4,40.3,26.5,81.8,40,122,12.3,37,26.9,73.3,37,111.1l-3,4.8h-80ZM661.9,756.3c-1.4-17.6-12.4-32.5-14-50-12.1,13.3-14.3,34-22,50h36,0Z"/>
      <path class="st0" d="M.2,208.5l11.7.3c13.8,31.9,50.9,51.3,85.3,47.7,7.6-.8,13.7-3.6,17.8-10.2,11.7-19-1.9-34.8-17-46.6-27-21.2-53.6-29.6-77.8-58.1C-16.6,98.3-.8,32,49.7,8.7,78.5-4.6,107.3.8,137.1,2.5c7.1.4,40.2-1.6,42.7,2.3.2,15.5.7,31.2.4,46.8-.1,4.7-2,9.1-2.2,13.8-.4,8.9,3.8,34.5-3.9,38.2-11.7-3.6-13.8-15.5-24.2-24-21.6-17.7-43.3-19.2-70.6-16.9-20.5,22.1,6.4,36.3,23.3,47.8,39.6,27,84.1,43,87.6,98.8,6.4,105.6-89.8,120.4-172.9,103-4.1-.9-12.9-4.8-17.1-6.9v-97h0Z"/>
      <path class="st0" d="M891.8,616.4c4.5,15,.2,31.2,2.5,46.5,3,20.4,13.7,43.1,15.6,64.3l30.9,95.1c3.2,0,17.4-52,19.5-58.5,10.5-32,24.6-68.1,30.9-101,3.4-17.9,1.8-28.8-1.5-46.4h81c13.3,0,2.6,28.9.4,36.4-21.1,72.2-60.1,138.4-84.3,209.6-6.3,18.5-12,40.6-13.1,59.9l-70.1,1.1-1.6-2.4c.5-23.9-12-44.8-19.3-66.7-23.6-71.7-44.2-149.1-77.4-216.6-1.2-2.5-4.4-2.6-5.5-4.9-1.7-3.7-3.6-14.1.9-16.4h91Z"/>
      <path class="st0" d="M833.8,56.5l-4.3,81.7c-12,7.1-14.9-7.2-22.7-13.7-8.5-7-15.2-6.7-23.5-10.1-2.3-.9-1.2-3.9-1.5-3.9h-48v52h53c7.2,0,17.8-15.7,27-12v74c-10.8,1.4-13.7-6.8-25-8-18.3-1.9-36.8,2.1-55,2l2,64h55c2.4,0,18.1-9.2,23.4-8.2l18.7-11.8,4.9,3v37l-4,1.4-9,34.6h-157.9c-.7,0-3.2-2.1-4.7-2.3l-.5-2.7c-1-7.6,5.1-16.3,6.1-22.1s1.8-19.1,2.2-25.8c2-37.5,5.2-178.7-4.7-207.4-.9-2.5-15.2-21.6-6.4-21.6h174.9,0Z"/>
      <path class="st0" d="M1363.6,56.5v87l-10.1,2.1c-14.7-31.2-54-31.6-83.9-27l2,168.9c2.8,22.4,2.3,45,11.9,66l-5,7h-85c1.7-21.1,7-41.7,8.1-62.9,3-59.6-2.1-121.5-2.1-181h-33c-5,0-25.3,8.7-30,12-9.3,6.7-12,25.2-25,15V59.5l5.9-4.1,246,1.1Z"/>
      <path class="st0" d="M378,135.5l-8.1,2.1c-4.3-9.6-10.4-15.7-19.9-20.1-4.5-2.1-9.2-1.7-12.5-3.1-2.3-.9-1.2-3.9-1.5-3.9h-48v52h53c5.5,0,20.8-16.1,25-12v73.9c-6.5,3.5-13.8-7.9-17-7.9h-61l1.9,65c10,1.7,20.9,3.4,31.1,3,15.1-.6,30.2-3.4,43-8.9,2.2-1,14-9.5,14-2v62l-161,1.1c-3-4.8,3.9-18.1,4.8-25.4,6.9-53.3,5.3-142.9,2.3-197.8-1-18.1-3.1-36.9-13.7-51.9,0-.7,4.3-5,4.6-5h159.9l3,3v76h0Z"/>
      <path class="st0" d="M472,60.5c-3.1,31,5.9,58.2,13.5,87.4,2.5,9.5,3.6,17.5,6.6,27.4,6.9,23.2,16.6,45.7,22.9,69.1,3.8.8,3-1.4,3.9-4,4.4-12.7,7.5-26.1,11.6-38.5,9.4-28.5,37.1-100.1,33.6-126.6-.3-2.6-7.7-6.7-4.2-14.9h80c0,5.5.4,11-.5,16.5-5.2,31.1-28.8,83.1-41.1,112.8-17.1,41.4-43.9,88.9-52.2,133.7-.9,4.7.3,10.1,0,14.9l-63-2c-7.5-25.5-15-51.3-23.5-76.4-18.7-55.1-39.3-126.5-65-176.9-3.9-7.6-12.6-13.4-10.4-22.6h88,0Z"/>
    </g>
  </g>
</svg>